<?xml version="1.0" encoding="UTF-8"?>
<svg version="1.1" xmlns="http://www.w3.org/2000/svg" width="1024" height="1024">
<path d="M0 0 C3.2510191 -0.0407907 6.48800112 0.00504818 9.73828125 0.0859375 C10.7137793 0.10479004 10.7137793 0.10479004 11.70898438 0.12402344 C57.76281032 1.16973126 108.31596764 14.30881513 143.16455078 45.8581543 C144.83822563 47.30493334 144.83822563 47.30493334 147.73828125 48.0859375 C149.46586995 49.71480685 151.09944969 51.37127312 152.73828125 53.0859375 C154.0689128 54.42196715 155.40243457 55.75512226 156.73828125 57.0859375 C159.73828125 60.0859375 162.73828125 63.0859375 165.73828125 66.0859375 C166.50140625 66.7459375 167.26453125 67.4059375 168.05078125 68.0859375 C169.73828125 70.0859375 169.73828125 70.0859375 170.19921875 72.2578125 C169.49209891 76.59641219 166.88110697 79.0800621 164.05078125 82.3359375 C162.84922207 83.7623547 161.65007535 85.19080694 160.453125 86.62109375 C159.52669189 87.72348389 159.52669189 87.72348389 158.58154297 88.84814453 C155.64960562 92.40763297 152.88509004 96.08883259 150.11328125 99.7734375 C145.87668758 105.37506456 141.51250675 110.80547565 136.91503906 116.11376953 C132.43593467 121.33177935 128.31804379 126.81634105 124.24023438 132.3515625 C121.38215822 136.17428418 118.67469491 139.2897765 114.73828125 142.0859375 C110.67411031 140.69728518 107.92983266 138.80631405 104.67578125 136.0234375 C89.71254343 123.55075191 74.77426633 113.84029638 56.67578125 106.5234375 C55.61721924 106.09361572 54.55865723 105.66379395 53.46801758 105.22094727 C47.82947445 103.01965645 42.78527779 101.49971758 36.73828125 101.0859375 C36.73828125 100.4259375 36.73828125 99.7659375 36.73828125 99.0859375 C11.8656715 95.46234655 -17.88571708 92.00470586 -39.7890625 107.1015625 C-47.57686072 113.35148588 -53.73318132 121.03721922 -55.26171875 131.0859375 C-56.09962949 144.51998189 -55.19604823 155.35902991 -46.14453125 166.0390625 C-45.52320313 166.71453125 -44.901875 167.39 -44.26171875 168.0859375 C-43.72289062 168.67890625 -43.1840625 169.271875 -42.62890625 169.8828125 C-31.85297478 180.41713115 -16.03508492 185.6802921 -2.01171875 190.2734375 C-0.38784207 190.81782814 1.2357671 191.36301727 2.85913086 191.90893555 C17.76153787 196.88755144 32.77728984 201.52797166 47.81933594 206.06518555 C83.55555174 216.91628287 117.40078647 230.94411843 144.73828125 257.0859375 C145.60453125 257.9109375 146.47078125 258.7359375 147.36328125 259.5859375 C148.14703125 260.4109375 148.93078125 261.2359375 149.73828125 262.0859375 C150.29515625 262.64796875 150.85203125 263.21 151.42578125 263.7890625 C166.38732278 279.59520718 176.29287647 300.1713051 181.73828125 321.0859375 C181.99359619 322.03718506 182.24891113 322.98843262 182.51196289 323.96850586 C184.55175143 332.06205817 185.3431679 339.81697004 185.55078125 348.1484375 C185.60322998 350.04916016 185.60322998 350.04916016 185.65673828 351.98828125 C186.45933184 391.80499828 174.07263718 429.3418216 146.3828125 458.34765625 C145.07376953 459.70310547 145.07376953 459.70310547 143.73828125 461.0859375 C142.99964844 461.87613281 142.26101563 462.66632813 141.5 463.48046875 C112.12309689 494.14630362 65.09161841 511.27134051 23.08666992 512.24707031 C21.44325681 512.26691445 19.79976144 512.28066114 18.15625 512.2890625 C17.26198807 512.29476257 16.36772614 512.30046265 15.44636536 512.30633545 C13.55971435 512.31572743 11.67304736 512.32229615 9.78637695 512.32617188 C6.97120515 512.33578243 4.15679507 512.36682218 1.34179688 512.3984375 C-11.12636635 512.47139512 -23.0032239 511.32811989 -35.26171875 509.0859375 C-36.36169189 508.89241699 -37.46166504 508.69889648 -38.5949707 508.49951172 C-60.56694829 504.43720853 -83.12694627 497.90760584 -102.26171875 486.0859375 C-100.90935298 483.14714266 -99.36229216 480.79360839 -97.26171875 478.3359375 C-96.74609375 477.72234375 -96.23046875 477.10875 -95.69921875 476.4765625 C-94.26171875 475.0859375 -94.26171875 475.0859375 -92.26171875 475.0859375 C-91.89820313 474.24869141 -91.89820313 474.24869141 -91.52734375 473.39453125 C-90.00216904 470.6124996 -88.11860877 468.52392112 -86.01171875 466.1484375 C-69.94332394 447.39395573 -58.97412837 426.00503757 -50.26171875 403.0859375 C-44.74173079 404.2146877 -39.50796003 405.60223575 -34.19921875 407.5234375 C-8.52076936 416.19395796 23.57151729 417.32383462 48.36328125 405.2734375 C59.9793557 399.19136352 68.32834165 390.94155516 72.61328125 378.2109375 C76.1036796 364.5311775 75.12266685 352.29171489 68.4140625 339.8671875 C50.57309368 310.25700149 0.96033617 303.21292027 -29.63793945 293.95458984 C-38.93670404 291.13615406 -48.18598434 288.20794337 -57.36450195 285.01464844 C-60.45237847 283.95079996 -62.96991496 283.0859375 -66.26171875 283.0859375 C-66.26171875 282.4259375 -66.26171875 281.7659375 -66.26171875 281.0859375 C-66.8026416 280.91505615 -67.34356445 280.7441748 -67.90087891 280.56811523 C-90.03091175 273.4075605 -110.19375089 261.89307052 -127.26171875 246.0859375 C-128.15246094 245.26480469 -129.04320312 244.44367188 -129.9609375 243.59765625 C-154.63542025 219.90561845 -165.58795926 188.03852448 -166.29296875 154.3359375 C-166.41576816 113.07533408 -150.69287474 76.49187599 -122.26171875 47.0859375 C-121.648125 46.42078125 -121.03453125 45.755625 -120.40234375 45.0703125 C-111.02181463 35.13252423 -99.18527567 27.59159228 -87.26171875 21.0859375 C-86.63378418 20.74320801 -86.00584961 20.40047852 -85.35888672 20.04736328 C-59.13249226 6.0675373 -29.42925796 0.77538165 0 0 Z " fill="#9254CA" transform="translate(679.26171875,250.9140625)"/>
<path d="M0 0 C0.86355606 -0.0071553 1.72711212 -0.01431061 2.61683655 -0.02168274 C4.03356407 -0.02571609 4.03356407 -0.02571609 5.47891235 -0.02983093 C6.97444893 -0.03968773 6.97444893 -0.03968773 8.50019836 -0.04974365 C11.8038134 -0.06947572 15.10738303 -0.08113775 18.41104126 -0.09111023 C19.53840321 -0.09518576 20.66576515 -0.09926128 21.82728958 -0.10346031 C27.79172839 -0.12431849 33.75614418 -0.13862255 39.72061157 -0.147995 C45.88683211 -0.15907198 52.05269303 -0.19348776 58.21878624 -0.23316669 C62.9559599 -0.25928143 67.69304709 -0.26768216 72.43028641 -0.27127647 C74.70370544 -0.27615402 76.97712032 -0.28780102 79.25046921 -0.30631447 C82.42977388 -0.33060081 85.60813753 -0.32976009 88.7875061 -0.32279968 C89.72794266 -0.33560974 90.66837921 -0.3484198 91.63731384 -0.36161804 C95.87942583 -0.32772872 98.15055706 -0.23361526 101.82354736 2.05154419 C104.78885277 5.25628521 104.88827239 7.03384226 104.89288902 11.3065176 C104.89651337 12.40650221 104.90013772 13.50648682 104.90387189 14.6398043 C104.90280364 15.8583399 104.90173539 17.0768755 104.90063477 18.33233643 C104.90345605 19.61920918 104.90627733 20.90608193 104.9091841 22.23195082 C104.91695872 25.81645482 104.91855767 29.40093971 104.91923523 32.9854511 C104.92107139 36.84744374 104.92867678 40.70942509 104.93571472 44.57141113 C104.94725631 51.2710042 104.95549283 57.97059474 104.96183395 64.67019463 C104.97215921 75.2737481 104.99272585 85.8772702 105.01495361 96.48080444 C105.0224343 100.10970582 105.02984802 103.73860733 105.03724098 107.36750889 C105.03909155 108.27459669 105.04094211 109.18168449 105.04284876 110.11625979 C105.06379075 120.45037232 105.08260817 130.78448834 105.10049438 141.11860657 C105.10213257 142.06350716 105.10377075 143.00840776 105.10545857 143.98194171 C105.13167974 159.25584225 105.15035648 174.52974521 105.16708629 189.80365866 C105.18455405 205.49858414 105.21345461 221.19346264 105.25197566 236.88835055 C105.27528867 246.55885493 105.28936238 256.22928262 105.29130329 265.89981533 C105.29342517 272.54380185 105.30645793 279.18771247 105.32778262 285.83166485 C105.33971989 289.65575508 105.34702526 293.47969475 105.34107018 297.30380249 C105.20124086 325.27231603 105.20124086 325.27231603 111.45010376 352.39717102 C111.70574097 353.12766663 111.96137817 353.85816223 112.22476196 354.61079407 C116.46392656 366.26186313 124.01245963 384.27209895 135.76260376 390.14717102 C135.76260376 390.80717102 135.76260376 391.46717102 135.76260376 392.14717102 C136.33365845 392.4127179 136.90471313 392.67826477 137.49307251 392.95185852 C139.87983774 394.2089156 141.91011066 395.66431777 144.07510376 397.27217102 C157.65398712 406.82915638 175.46750899 416.25016162 192.47354126 416.12763977 C194.76260376 416.14717102 194.76260376 416.14717102 195.76260376 417.14717102 C215.10505463 419.80061557 215.10505463 419.80061557 233.76260376 416.14717102 C234.97947876 416.04404602 236.19635376 415.94092102 237.45010376 415.83467102 C256.50643144 413.84325414 275.18200151 405.41498808 289.76260376 393.14717102 C290.56891235 392.49724182 290.56891235 392.49724182 291.39151001 391.83418274 C305.44900996 380.26124637 312.8487518 363.91373336 317.57510376 346.70967102 C317.7702356 346.00809875 317.96536743 345.30652649 318.16641235 344.58369446 C322.75477002 326.48134779 322.0134927 307.82573991 321.89993286 289.31190491 C321.87918402 285.56365742 321.87027815 281.81538171 321.86026001 278.0670929 C321.83904385 270.7603768 321.80507547 263.45379785 321.76260376 256.14717102 C324.76260376 256.14717102 324.76260376 256.14717102 326.16494751 257.51045227 C326.67154907 258.15369446 327.17815063 258.79693665 327.70010376 259.45967102 C349.52939714 285.28268128 381.89974858 300.57996149 413.33413696 311.24629211 C420.24015146 313.58987389 420.24015146 313.58987389 422.76260376 315.14717102 C425.68898457 323.17770442 424.40422759 330.84279605 423.26260376 339.14717102 C423.1250618 340.19697647 423.1250618 340.19697647 422.98474121 341.26799011 C417.48006018 383.06877201 402.66806314 426.8126061 370.76260376 456.14717102 C370.10260376 456.14717102 369.44260376 456.14717102 368.76260376 456.14717102 C368.5447522 456.71049133 368.32690063 457.27381165 368.10244751 457.85420227 C366.32301111 460.8994768 364.06853487 462.63045347 361.32510376 464.83467102 C360.35701782 465.62228821 359.38893188 466.4099054 358.39151001 467.22138977 C355.76260376 469.14717102 355.76260376 469.14717102 352.76260376 470.14717102 C352.76260376 470.80717102 352.76260376 471.46717102 352.76260376 472.14717102 C350.58671926 473.78670304 348.41927124 475.29208789 346.13760376 476.77217102 C345.11424927 477.44204041 345.11424927 477.44204041 344.07022095 478.1254425 C317.08287463 495.6210534 288.45638946 506.64633233 256.76260376 512.14717102 C255.88958618 512.31088196 255.0165686 512.4745929 254.11709595 512.64326477 C239.33676785 515.34991585 224.55333783 515.43253056 209.57510376 515.45967102 C208.60490295 515.46334686 207.63470215 515.46702271 206.63510132 515.47080994 C188.59477942 515.50645069 170.67382425 514.51941279 152.95010376 510.95967102 C151.32709351 510.63712341 151.32709351 510.63712341 149.67129517 510.30805969 C113.6387764 502.88097007 77.96736867 488.72828931 50.87588501 463.13935852 C48.94126744 461.31559704 46.94360281 459.64299407 44.88760376 457.95967102 C14.13668757 431.06038474 -1.70389023 389.37298649 -8.23739624 350.14717102 C-8.35067261 349.47347473 -8.46394897 348.79977844 -8.58065796 348.10566711 C-10.2734335 337.44358802 -10.49414878 326.66792039 -10.78427124 315.89546204 C-10.80579695 315.11495141 -10.82732265 314.33444079 -10.84950066 313.53027833 C-11.3252718 295.91634756 -11.35346334 278.31002843 -11.30585861 260.69098735 C-11.29561697 256.36840863 -11.29232235 252.04582437 -11.28842163 247.72323608 C-11.27751497 236.84370207 -11.25784911 225.96419059 -11.23739624 215.08467102 C-11.2152492 203.21395408 -11.19481882 191.34324478 -11.18397808 179.47251135 C-11.1790112 174.35354467 -11.16918207 169.23461785 -11.1555481 164.11566722 C-11.14811001 160.95689899 -11.14477811 157.79813624 -11.14258194 154.63936043 C-11.14070619 153.17477211 -11.13709784 151.71018485 -11.13164902 150.24560547 C-11.12446059 148.2517406 -11.12398053 146.25785487 -11.12387085 144.26397705 C-11.12165024 143.14835357 -11.11942963 142.03273008 -11.11714172 140.88329983 C-11.11619204 138.05367063 -11.11619204 138.05367063 -12.23739624 135.14717102 C-11.57739624 135.14717102 -10.91739624 135.14717102 -10.23739624 135.14717102 C-10.40239624 134.23580383 -10.56739624 133.32443665 -10.73739624 132.38545227 C-11.50011184 127.05315711 -11.30469014 121.70808887 -11.23739624 116.33467102 C-11.21196343 114.26571203 -11.19090439 112.19669315 -11.17489624 110.12763977 C-11.1574939 108.76481873 -11.1574939 108.76481873 -11.13973999 107.37446594 C-11.08754845 105.10719524 -11.08754845 105.10719524 -12.23739624 103.14717102 C-11.57739624 103.14717102 -10.91739624 103.14717102 -10.23739624 103.14717102 C-10.26703461 102.57775284 -10.29667297 102.00833466 -10.32720947 101.42166138 C-11.09976827 86.21762469 -11.40340356 71.057034 -11.36239624 55.83467102 C-11.360513 54.77253387 -11.35862976 53.71039673 -11.35668945 52.61607361 C-11.33087479 40.18800678 -11.29650552 27.75795372 -10.92489624 15.33467102 C-10.90249878 14.31784241 -10.88010132 13.30101379 -10.85702515 12.25337219 C-10.82141479 11.34563049 -10.78580444 10.43788879 -10.74911499 9.50263977 C-10.72293091 8.74620178 -10.69674683 7.98976379 -10.66976929 7.21040344 C-10.1120633 4.54909725 -9.07351164 3.13275341 -7.23739624 1.14717102 C-4.48453711 0.22955131 -2.83802574 0.01616458 0 0 Z " fill="#00BBB2" transform="translate(192.23739624023438,255.8528289794922)"/>
<path d="M0 0 C3 0 3 0 4.40234375 1.36328125 C4.90894531 2.00652344 5.41554688 2.64976562 5.9375 3.3125 C27.76679338 29.13551026 60.13714482 44.43279047 91.5715332 55.09912109 C98.4775477 57.44270287 98.4775477 57.44270287 101 59 C103.92638082 67.0305334 102.64162383 74.69562503 101.5 83 C101.40830536 83.6998703 101.31661072 84.3997406 101.22213745 85.12081909 C96.59857807 120.23064588 86.17510087 153.9731364 64 182 C64 177.9603152 66.03940358 175.90018764 68.3125 172.75 C84.94260395 148.69166271 93.49697986 120.10262264 97.43798828 91.38867188 C97.7529431 89.10364756 98.08461113 86.82146721 98.41796875 84.5390625 C100.58196207 73.22789438 100.58196207 73.22789438 100 62 C97.53713258 59.67657858 95.19234941 58.54803575 91.96484375 57.6328125 C91.16925049 57.39401367 90.37365723 57.15521484 89.55395508 56.90917969 C88.6905249 56.65040039 87.82709473 56.39162109 86.9375 56.125 C58.49171908 47.08629467 32.78013077 32.03763287 11.05712891 11.71679688 C8.47300513 9.30318109 5.84590905 7.09459512 3 5 C2.99413376 5.75960526 2.98826752 6.51921051 2.98222351 7.30183411 C2.92369751 14.5511798 2.85129524 21.80020488 2.76428509 29.04926014 C2.72004289 32.77378383 2.68069378 36.49820962 2.65356445 40.22290039 C2.41961277 71.37540658 1.06053232 106.1274771 -22 130 C-22.66 130.33 -23.32 130.66 -24 131 C-22.38396744 127.40026609 -20.16228665 124.47116329 -17.8125 121.3125 C0.54001765 95.51064833 0.32322301 63.47130325 0.1373291 33.16473389 C0.11658026 29.41648639 0.10767439 25.66821068 0.09765625 21.91992188 C0.07644009 14.61320578 0.04247171 7.30662683 0 0 Z " fill="#0A9A97" transform="translate(514,512)"/>
<path d="M0 0 C11.3154198 9.77714844 16.37365573 28.0005288 20 42 C20.26272705 42.97928467 20.5254541 43.95856934 20.79614258 44.9675293 C22.8297638 53.02936304 23.60568896 60.76322892 23.8125 69.0625 C23.84746582 70.32964844 23.88243164 71.59679687 23.91845703 72.90234375 C24.50445236 101.97360907 18.37383746 131.034827 3 156 C2.34 156.33 1.68 156.66 1 157 C2.43573038 152.22159478 4.49530464 147.95775919 6.8125 143.5625 C10.74085789 135.89957965 13.59250019 128.27003751 16 120 C16.29648437 118.98421875 16.59296875 117.9684375 16.8984375 116.921875 C26.26257702 82.24674449 22.76302646 41.68375648 4.7980957 10.28173828 C4.06959993 9.03101242 3.33397702 7.78440496 2.59057617 6.54248047 C0 2.19270208 0 2.19270208 0 0 Z " fill="#7A45AB" transform="translate(841,530)"/>
<path d="M0 0 C0 3 0 3 -1.8359375 4.8671875 C-15.11843416 15.37057717 -29.01716006 20.44409689 -46 21 C-42.837587 19.08590792 -39.66503238 18.47518985 -36.06005859 17.80932617 C-22.4962798 15.25912934 -9.67926784 10.18870298 0 0 Z " fill="#7F49B2" transform="translate(743,645)"/>
<path d="M0 0 C0 3 0 3 -1.73046875 4.98046875 C-10.98996546 13.29782271 -22.00336033 21.17528735 -34 25 C-34.99 24.67 -35.98 24.34 -37 24 C-35.98421875 23.5153125 -34.9684375 23.030625 -33.921875 22.53125 C-21.36954162 16.45640443 -10.17351672 9.65970275 0 0 Z " fill="#02A49D" transform="translate(489,643)"/>
<path d="M0 0 C-10.40345927 5.92117764 -23.84129233 5.40588174 -35.4375 5.1875 C-36.86261572 5.17239277 -38.28774732 5.15871527 -39.71289062 5.14648438 C-43.14226763 5.11403259 -46.5710246 5.06260184 -50 5 C-50 4.67 -50 4.34 -50 4 C-49.04109863 3.94465088 -48.08219727 3.88930176 -47.09423828 3.83227539 C-43.5418866 3.62607259 -39.98989671 3.41413089 -36.43798828 3.20043945 C-34.89966972 3.1086989 -33.36125709 3.01852202 -31.82275391 2.92993164 C-29.61334145 2.80243814 -27.40432662 2.66935369 -25.1953125 2.53515625 C-24.16085495 2.47727684 -24.16085495 2.47727684 -23.10549927 2.41822815 C-19.42968082 2.22192417 -19.42968082 2.22192417 -16 1 C-10.67734907 0.1219252 -5.38408658 -0.11455503 0 0 Z " fill="#01A197" transform="translate(442,671)"/>
<path d="M0 0 C6.55591956 2.57553983 10.35568141 9.79602963 13.44140625 15.80859375 C16.43492988 22.82825021 16.43492988 22.82825021 15 27 C14.67128906 26.04480469 14.34257813 25.08960938 14.00390625 24.10546875 C10.9972559 15.79676832 7.6945457 9.61865013 1.7578125 2.9765625 C0 1 0 1 0 0 Z " fill="#7F49B2" transform="translate(739,579)"/>
<path d="M0 0 C3 0 3 0 4.71875 1.609375 C5.3065625 2.31578125 5.894375 3.0221875 6.5 3.75 C7.0878125 4.44609375 7.675625 5.1421875 8.28125 5.859375 C9.89985026 7.87526805 11.46396189 9.9207289 13 12 C9.05860922 10.33248852 6.2107188 7.77289351 3 5 C2.34 5.99 1.68 6.98 1 8 C0.67 5.36 0.34 2.72 0 0 Z " fill="#16949D" transform="translate(514,512)"/>
<path d="M0 0 C3 1 3 1 3 1 Z " fill="#8A57BE" transform="translate(674,764)"/>
<path d="M0 0 C3 1 3 1 3 1 Z " fill="#8956BE" transform="translate(669,764)"/>
<path d="M0 0 C3 1 3 1 3 1 Z " fill="#8859BF" transform="translate(625,757)"/>
<path d="M0 0 C0.66 0 1.32 0 2 0 C1.67 0.66 1.34 1.32 1 2 C0.67 1.34 0.34 0.68 0 0 Z " fill="#865CBF" transform="translate(515,438)"/>
<path d="M0 0 C2 1 2 1 2 1 Z " fill="#00B0A8" transform="translate(382,772)"/>
<path d="M0 0 C2 1 2 1 2 1 Z " fill="#00ACA8" transform="translate(344,767)"/>
<path d="M0 0 C2 1 2 1 2 1 Z " fill="#8956BD" transform="translate(702,764)"/>
<path d="M0 0 C2 1 2 1 2 1 Z " fill="#875CBF" transform="translate(622,756)"/>
<path d="M0 0 C2 1 2 1 2 1 Z " fill="#835DBE" transform="translate(602,750)"/>
<path d="M0 0 C2 1 2 1 2 1 Z " fill="#8752BB" transform="translate(845,529)"/>
<path d="M0 0 C2 1 2 1 2 1 Z " fill="#9659CF" transform="translate(659,350)"/>
<path d="M0 0 C2 1 2 1 2 1 Z " fill="#8954BA" transform="translate(828,300)"/>
<path d="M0 0 C2 1 2 1 2 1 Z " fill="#8954BB" transform="translate(580,277)"/>
</svg>
