<svg width="155" height="84" viewBox="0 0 155 84" class="navigation__logo-svg" xmlns="http://www.w3.org/2000/svg"><g fill-rule="nonzero" fill="inherit"><path fill="#C6562C" d="M4.00824 70.747H13.5328C16.1711 70.747 17.4499 71.4599 17.4499 73.5764C17.4499 75.4211 16.7738 75.7812 15.8551 76.0531V76.0972C17.3029 76.2809 17.8394 77.0526 17.8394 78.6767C17.8394 81.0432 16.443 81.5356 14.547 81.5356H4.00824V70.747ZM7.31537 75.0316H13.1727C13.7826 75.0316 14.1428 74.8037 14.1428 74.2011C14.1428 73.5764 13.79 73.3559 13.1727 73.3559H7.31537V75.0316ZM7.31537 78.9413H13.2462C13.9664 78.9413 14.4441 78.7723 14.4441 78.155C14.4441 77.4274 13.9664 77.2584 13.2462 77.2584H7.31537V78.9413ZM21.2935 70.747V81.5356H33.2947V78.9413H24.6006V77.2143H32.6553V74.9801H24.6006V73.2531H33.0963V70.747H21.2935ZM36.7562 70.747H46.7437C49.2939 70.747 49.9847 72.011 49.9847 73.9512V74.6347C49.9847 76.0825 49.6613 76.935 48.14 77.2878V77.3172C49.1248 77.5009 49.9406 77.9271 49.9406 79.6983V81.5282H46.6335V80.2348C46.6335 79.0956 46.3101 78.7282 45.2812 78.7282H40.078V81.5282H36.7709V70.747H36.7562ZM40.0633 76.0531H45.5311C46.4277 76.0531 46.7584 75.7003 46.7584 74.914V74.5612C46.7584 73.6058 46.2807 73.4221 45.2371 73.4221H40.0633V76.0531ZM53.674 70.747V81.5356H65.6605V78.9413H56.9811V77.2143H65.0284V74.9801H56.9811V73.2531H65.4767V70.747H53.674ZM80.4984 70.747V78.5886H80.4691L74.2517 70.747H69.1219V81.5356H72.4364V73.694H72.4658L78.6759 81.5356H83.8056V70.747H80.4984ZM87.4949 70.747H97.0194C99.6578 70.747 100.937 71.4599 100.937 73.5764C100.937 75.4211 100.268 75.7812 99.3417 76.0531V76.0972C100.79 76.2809 101.326 77.0526 101.326 78.6767C101.326 81.0432 99.9297 81.5356 98.0336 81.5356H87.4949V70.747ZM90.8093 75.0316H96.6666C97.2766 75.0316 97.6367 74.8037 97.6367 74.2011C97.6367 73.5764 97.284 73.3559 96.6666 73.3559H90.8093V75.0316ZM90.8093 78.9413H96.7401C97.4603 78.9413 97.9307 78.7723 97.9307 78.155C97.9307 77.4274 97.453 77.2584 96.7401 77.2584H90.8093V78.9413ZM104.795 70.747V81.5356H116.789V78.9413H108.102V77.2143H116.149V74.9801H108.102V73.2531H116.598V70.747H104.795ZM120.243 70.747H130.23C132.78 70.747 133.471 72.011 133.471 73.9512V74.6347C133.471 76.0825 133.148 76.935 131.627 77.2878V77.3172C132.611 77.5009 133.427 77.9271 133.427 79.6983V81.5282H130.12V80.2348C130.12 79.0956 129.797 78.7282 128.768 78.7282H123.565V81.5282H120.257V70.747H120.243ZM123.557 76.0531H129.025C129.922 76.0531 130.245 75.7003 130.245 74.914V74.5612C130.245 73.6058 129.767 73.4221 128.724 73.4221H123.55V76.0457H123.557V76.0531ZM136.925 74.5318C136.925 71.3717 138.697 70.6294 141.68 70.6294H146.656C150.419 70.6294 150.933 71.9817 150.933 74.0835V74.4216H147.685C147.685 73.3486 147.075 73.209 146.009 73.209H142.415C140.747 73.209 140.313 73.6132 140.313 75.4578V76.7954C140.313 78.64 140.747 79.0442 142.415 79.0442H145.95C146.81 79.0442 147.685 78.9046 147.685 77.861V77.545H143.569V75.3108H150.992V78.3828C150.992 81.4841 149.382 81.6311 145.656 81.6311H141.673C138.689 81.6311 136.918 80.8815 136.918 77.7287V74.5318H136.925Z"></path><path d="M77.1418 7.2648H70.364L71.1356 10.4396L77.1418 7.2648ZM77.8293 7.2648H84.4687L83.6971 10.4396L77.8293 7.2648Z" fill="#262626"></path><path fill="#262626" d="M85.3297 35.4856L82.9263 33.7745L82.9199 30.9103L85.3341 32.6039L85.3297 35.4856ZM88.8997 34.5263C88.2944 31.4446 86.2278 28.8671 86.2278 28.8671L86.2559 32.1582C88.1966 33.5808 88.8997 34.5263 88.8997 34.5263ZM85.3338 31.6038V27.8995C84.2487 28.4626 82.4683 29.4644 82.4683 29.4644L85.3338 31.6038ZM82.0755 29.6727L79.2839 31.2715L82.1148 33.2649L82.0755 29.6727ZM89.015 35.6714C87.5467 34.0911 86.2279 33.1979 86.2279 33.1979V35.6661C86.2279 35.6661 88.652 36.4375 89.3956 37.6594C89.3956 37.6594 89.3847 37.1358 89.2287 36.4318C89.1134 35.9118 89.015 35.6714 89.015 35.6714ZM82.8592 37.6593C84.0964 38.876 85.2058 39.4923 85.2058 39.4923C85.2058 39.4923 85.2551 39.2614 85.315 38.0397C85.3322 37.6891 85.3363 36.566 85.3363 36.566L82.8744 34.7841L82.8592 37.6593ZM82.1254 34.3406L79.5399 32.4948C79.4696 32.3916 80.0092 33.8005 80.5055 34.8091C81.1606 36.1404 82.074 37.0362 82.074 37.0362L82.1254 34.3406ZM86.6599 36.9114C86.8068 36.9628 90.1213 38.1681 89.4525 40.3802L89.4378 40.4169L86.4716 47.1501C85.9448 48.2293 87.0912 48.1556 87.0912 48.1556C87.0912 48.1556 88.5091 48.0934 88.5118 49.4225C88.5121 49.5629 88.496 50.1404 88.496 50.1404C88.496 50.1404 88.1996 50.1458 87.9824 50.1469H85.8927C85.7531 50.2351 85.2636 50.6911 84.8814 51.6391C84.2416 53.4603 82.8703 53.5445 82.8703 53.5445C82.8703 53.5445 82.1675 52.7361 82.1843 51.8155C81.5415 52.5811 79.6648 52.4927 79.438 52.3703C79.4418 51.6402 79.7423 50.2911 80.3834 49.357C80.2498 49.3634 79.7821 49.3893 79.5811 49.3937C79.4236 49.3971 78.9213 49.4159 78.9213 49.4159C78.9213 49.4159 79.1777 48.959 79.2358 48.8446C79.5173 48.2908 80.1558 47.5183 80.45 47.3252C80.7219 47.1414 81.1922 47.0679 81.9418 46.9798C82.3975 46.9283 83.0001 46.8548 83.1618 46.7446L83.1985 46.7299C83.2353 46.7152 86.0574 45.1057 86.1676 37.2568V36.7497L86.6599 36.9114ZM88.6372 40.5639H86.6085C85.8367 45.7858 83.8011 47.237 83.5659 47.3619C83.294 47.5456 82.7239 47.5682 81.9742 47.6564C81.5553 47.7078 81.0247 47.8313 80.8614 47.8836C80.496 48.0008 80.1101 48.7147 80.1101 48.7147C80.1101 48.7147 80.3849 48.6965 80.5872 48.6751C80.855 48.6468 82.1475 48.501 82.1475 48.501C82.4415 48.501 82.5517 48.7214 82.5517 48.8684C82.5517 49.1183 82.4415 49.2138 82.1475 49.2506H82.1328C82.0226 49.2726 81.8756 49.2726 81.7139 49.2873L81.4567 49.302C81.3318 49.3388 81.1203 49.4096 80.9587 49.608C80.7081 49.9183 80.4486 50.6668 80.2756 51.3277C80.2299 51.5024 80.2175 51.745 80.2175 51.745C80.2175 51.745 80.4637 51.7622 80.6817 51.7503C82.0079 51.6774 82.4439 50.0103 82.5908 49.8266C82.6349 49.7678 83.2569 49.538 83.0147 50.7939C82.619 52.1199 83.147 52.7635 83.147 52.7635C83.147 52.7635 83.8841 52.5182 84.1686 51.3965L84.1833 51.3598C84.7859 49.9267 85.5135 49.5592 85.5869 49.5225L85.6604 49.4858L87.5156 49.4731C87.6077 49.4724 87.8282 49.4769 87.8282 49.4769C87.8282 49.4769 87.8324 49.3477 87.8292 49.2457C87.8222 49.0259 87.5586 48.8392 87.0206 48.8091C86.3657 48.7724 86.061 48.6502 85.7796 48.2682C85.4713 47.8111 85.6437 47.4664 85.7256 47.2074L88.6372 40.5639ZM74.9673 47.5309C76.1138 41.7177 75.2392 40.7183 75.2392 40.7183C75.2392 40.7183 75.7463 37.0216 75.2392 34.4862C74.982 33.2074 75.2392 29.9664 75.2392 29.9664C75.2392 29.9664 75.0776 29.6945 74.688 30.1501C73.0859 29.7312 71.3368 30.7013 70.6827 30.7895C70.2638 30.841 69.4995 30.8998 69.4995 30.8998C69.3021 30.9134 69.1174 31.6641 69.9184 31.958C70.8077 32.2888 70.9767 32.3769 70.9767 32.3769L70.2271 33.3029C70.2271 33.3029 70.352 33.6484 70.7342 33.6704C71.1164 33.6851 71.3368 33.9276 70.8959 34.6184C70.3153 35.5665 69.1615 36.0589 69.1615 36.0589C69.1615 36.0589 68.5413 36.2406 68.3282 36.2658C68.0643 36.2971 67.1184 36.2573 67.1184 36.2573V35.3093L68.7897 35.3109L67.6108 32.5533H68.3751L67.4411 30.1501H68.0003L66.5084 27.1443L65.0172 30.1501H65.6045L64.6424 32.5533H65.4074L64.2278 35.3109L65.8991 35.3093V36.2573C65.8991 36.2573 65.4558 36.5379 65.4134 36.9849C65.3252 37.514 65.9572 37.9109 65.9572 37.9109C65.9572 37.9109 66.0307 39.4762 65.9205 39.8584C65.8588 40.0471 65.6896 40.1659 65.5341 40.2378C65.3386 40.3283 65.2629 40.566 65.3605 40.7579C65.4653 40.9638 65.6515 41.1838 65.9792 41.2621C65.9792 41.8059 65.9645 42.9745 65.9645 42.9745L65.4207 43.5403L65.9866 44.0474L65.6558 44.5031L66.4569 45.2307L67.2212 44.5031L66.9346 44.0474L67.4784 43.5403L66.9346 42.9745V41.2151L69.154 40.7036C69.154 40.7036 70.5945 41.9235 70.1756 43.2023C69.8669 44.165 67.9341 46.1934 67.9341 46.1934C66.4936 48.2732 67.5887 48.8391 67.8606 49.6181C68.0811 50.2354 67.5724 51.0119 66.5846 51.5431C65.9259 52.0239 66.0572 52.5578 66.0572 52.5578H69.6037C69.6037 52.5578 69.7437 51.7245 69.7437 51.3256C69.7437 50.3404 69.6611 49.7871 69.6611 49.7871C69.6758 47.5089 71.5719 47.3619 71.5719 47.3619C71.9173 48.038 72.079 48.3614 72.4097 48.8391C73.1226 49.8753 73.2139 50.7401 73.2139 50.7401C72.9841 51.4032 72.5952 51.3763 72.1526 51.6832C71.7743 51.8633 71.7752 52.5431 71.7752 52.5431H74.3116C76.2963 52.5431 75.5301 51.2049 75.5301 51.2049C74.5904 49.4518 74.9673 47.5309 74.9673 47.5309ZM66.5018 11.3679C66.5018 11.3679 61.0743 8.33889 57.2999 12.7987V17.6785C57.2999 17.6785 60.4514 13.3236 65.968 15.427L65.0758 13.102L66.5018 11.3679ZM57.3718 18.787C58.1163 21.2185 62.9937 22.4683 63.5523 22.4941C64.2033 22.5242 65.8953 22.4966 65.8953 22.4966L71.7248 19.7674L71.4036 18.4799C69.603 18.9503 64.1189 20.0606 59.0801 16.9107C59.0802 16.9107 58.1107 17.5654 57.3718 18.787ZM66.0713 23.2709C66.0713 23.2709 58.181 22.3553 56.2793 26.69L56.2769 31.2465L57.2788 31.9037C58.8247 30.0751 60.9732 29.9454 60.9732 29.9454V24.5152L68.4379 24.5236L66.0713 23.2709ZM60.9732 30.6142C60.9732 30.6142 58.9632 30.7883 57.8131 32.3178L60.9732 34.4585V30.6142ZM63.2089 45.9679C63.2089 45.9679 63.3656 45.1136 62.6746 44.3806C62.6746 44.3806 60.9805 46.05 57.8364 46.7445L59.2254 49.2065L57.9025 52.984C58.8359 52.69 60.607 51.9992 62.2973 50.7572C62.4446 50.19 62.9205 48.7996 63.2089 45.9679ZM63.4625 44.4232C63.4625 44.4232 64.3037 37.0362 60.9304 35.199L56.2793 32.0608L56.2792 38.1866C56.2792 38.1866 56.4789 38.9584 58.8894 40.9086C60.3443 42.0858 61.7575 42.9673 62.4695 43.4301C63.3789 44.0214 63.4625 44.4232 63.4625 44.4232ZM69.4932 56.1465C73.609 58.4159 77.0251 58.2949 77.0251 58.2949V29.2535L70.8269 25.9115H62.3696V35.5627C65.4155 38.8297 64.0391 46.5122 63.1019 50.6348C63.1019 50.6348 65.434 53.9085 69.4932 56.1465ZM77.4395 7.8609L85.0603 11.8428L83.6116 17.8329C85.6634 18.2723 90.4845 19.3837 95.3128 16.4707C92.0533 14.2523 87.8425 16.5442 87.8425 16.5442L89.1382 13.1882L87.4454 11.1527C87.4454 11.1527 93.9715 7.13127 98.1777 12.4754L98.2512 12.5856V18.4723C98.2512 21.0078 93.9593 22.4239 93.0701 22.6958C98.2602 23.292 99.2622 26.4995 99.2622 26.4995L99.2597 38.4643C99.2597 38.4643 98.9397 39.559 96.8956 41.1912C94.9777 42.7227 92.9 43.8544 92.9 43.8544C93.5173 44.4203 95.0248 45.7451 97.597 46.164L98.1262 46.2522L96.3918 49.3315L98.0821 53.9835C98.0821 53.9835 95.1362 53.3749 92.6818 51.7173C85.2816 60.2774 77.4394 59.6979 77.4394 59.6979C77.4394 59.6979 68.8755 60.1551 62.1831 51.7312C59.6352 53.4307 56.8001 53.9835 56.8001 53.9835L58.4904 49.3315L56.756 46.2522L57.2851 46.164C59.8573 45.7451 61.4944 44.473 62.1117 43.9071C56.7909 40.6808 55.6225 38.4675 55.6225 38.4675L55.62 26.4995C55.62 26.4995 56.622 23.292 61.8121 22.6958C60.9229 22.4239 56.6311 21.0078 56.6311 18.4723V12.5856L56.7045 12.4754C60.9107 7.13135 67.4368 11.1527 67.4368 11.1527L65.744 13.1882L67.0398 16.5442C67.0398 16.5442 62.8288 14.2523 59.5695 16.4707C64.3977 19.3838 69.2189 18.2724 71.2706 17.8329L69.8219 11.8428L77.4395 7.8609ZM77.4395 28.6315L88.073 22.8773L82.8332 20.4154C80.8636 21.0328 79.1507 22.7936 78.2908 23.7417C78.9922 24.4476 78.9828 26.6372 77.4395 26.6372C75.8962 26.6372 75.8978 24.4342 76.5915 23.7417C75.7316 22.7936 74.0187 21.0328 72.0491 20.4154L66.8093 22.8773L77.4395 28.6315ZM77.4395 23.6167C78.1524 22.7641 80.0716 20.5703 82.416 19.7546L83.6631 14.6875L81.5024 14.0407C81.3554 15.0255 80.4074 16.7158 77.8572 18.4503V11.8874L83.8542 13.9673L83.9935 13.4191L77.4395 10.6127L70.8888 13.4191L71.0282 13.9673L77.0251 11.8874V18.4503C74.4749 16.7158 73.5269 15.0255 73.3799 14.0407L71.2192 14.6875L72.4663 19.7546C74.8107 20.5703 76.7266 22.7641 77.4395 23.6167ZM77.4395 9.71289L84.1711 12.659L84.2842 12.24L77.4395 8.70753L70.5981 12.24L70.7113 12.659L77.4395 9.71289ZM89.8066 12.9551L88.9879 15.3535C94.5045 13.2501 97.5825 17.6785 97.5825 17.6785V12.7987C93.8081 8.33889 88.4542 11.3679 88.4542 11.3679L89.8066 12.9551ZM97.5105 18.787C96.7718 17.5654 95.8129 16.9107 95.8129 16.9107C90.7741 20.0606 85.2792 18.9508 83.4786 18.4805L83.1576 19.7674L88.9871 22.4966C88.9871 22.4966 90.6791 22.5242 91.3301 22.4941C91.8886 22.4684 96.7661 21.2185 97.5105 18.787ZM86.4958 24.4964L93.9082 24.5149V29.9453C93.9082 29.9453 96.1015 30.0967 97.6035 31.9037L98.6054 31.2465L98.603 26.69C96.7014 22.3552 88.811 23.2709 88.811 23.2709L86.4958 24.4964ZM93.9082 34.4591L97.0622 32.3226C95.8561 30.7972 93.9082 30.6519 93.9082 30.6519V34.4591ZM91.6716 45.9404C91.9718 48.5684 92.4461 50.2221 92.5851 50.7572C94.2754 51.9992 96.0465 52.6901 96.9799 52.984L95.657 49.2066L97.046 46.7446C95.4487 46.4153 94.1786 45.7254 93.2867 45.0934C92.853 44.7862 92.6387 44.6124 92.3897 44.3807C92.3897 44.3807 91.5853 45.1845 91.6716 45.9404ZM98.6031 38.2079V32.0609L93.952 35.199C90.4461 37.2898 91.5303 44.4924 91.5303 44.4924C91.5303 44.4924 91.6093 43.9716 92.5789 43.3307C93.4941 42.7257 93.5155 42.8237 95.7529 41.2351C98.3115 39.4183 98.6031 38.2079 98.6031 38.2079ZM91.8097 50.5796C91.1471 47.6286 89.3643 38.8902 92.4939 35.4836L92.5119 25.9115L84.0977 25.8887L77.8572 29.2535V58.2961C77.8572 58.2961 81.3535 58.3641 85.2548 56.0936C89.4522 53.6509 91.8097 50.5796 91.8097 50.5796ZM77.4147 2.478L70.533 6.63278H84.2997L77.4147 2.478Z"></path></g></svg>