<svg xmlns="http://www.w3.org/2000/svg" width="180" height="41" fill="none" class="dva-e-icon__svg"><path fill="#C8AA22" d="M42.352 18.979c0-4.491-1.398-8.655-3.783-12.082l-4.02 8.572c.295 1.132.448 2.309.448 3.51 0 3.692-1.438 7.163-4.048 9.774a13.8 13.8 0 0 1-3.926 2.759l-.075.034a13.8 13.8 0 0 1-5.772 1.256 13.8 13.8 0 0 1-5.847-1.29 13.8 13.8 0 0 1-3.926-2.759 13.73 13.73 0 0 1-4.048-9.774c0-1.201.154-2.378.449-3.51L3.783 6.897A21.1 21.1 0 0 0 0 18.979c0 11.697 9.48 21.18 21.176 21.18s21.176-9.483 21.176-21.18m-9.046-6.636 3.56-7.588a21.3 21.3 0 0 0-5.97-4.596L27.77 6.824 26.726 9.05l-5.55 11.831-5.55-11.83-1.044-2.227L11.455.16a21.3 21.3 0 0 0-5.968 4.596l3.559 7.588 1.376 2.933 4.095 8.73 2.633 5.613c1.27.48 2.628.73 4.026.73s2.757-.25 4.027-.73l2.632-5.613 4.095-8.73 1.376-2.933ZM58.04 30.954l3.305-8.984H59.55l-2.346 6.713-2.345-6.713h-1.921l3.306 8.984zm7.952.056a9 9 0 0 0 1.242-.255v-1.548a6 6 0 0 1-1.067.294q-.58.106-1.129.106-.96 0-1.428-.393t-.556-1.317h4.492v-.536q0-3.795-3.107-3.794-1.56 0-2.37.968-.811.966-.811 2.826 0 1.92.848 2.832.849.91 2.633.911.585 0 1.253-.093Zm-.642-5.59q.311.356.4 1.192h-2.696q.088-.849.406-1.198.318-.35.967-.35.61.001.923.356m5.414 5.534v-5.09q.462-.262.93-.375a4.5 4.5 0 0 1 1.054-.112q.312 0 .636.037v-1.697a2.5 2.5 0 0 0-.462-.037q-.599 0-1.11.193-.512.194-1.16.68l-.075-.836h-1.56v7.237zm5.427 0v-5.378q.674-.337 1.322-.337.511 0 .724.263.212.262.212.81v4.642h1.747v-4.953a3 3 0 0 0-.025-.412q.686-.35 1.347-.35.511 0 .724.263.212.262.212.81v4.642H84.2v-4.953q0-.874-.312-1.404a1.88 1.88 0 0 0-.804-.768 2.35 2.35 0 0 0-1.03-.237q-.585.001-1.147.206a5 5 0 0 0-1.148.618 1.72 1.72 0 0 0-.755-.63 2.4 2.4 0 0 0-.942-.194q-.51 0-1.004.175a5 5 0 0 0-1.004.5l-.05-.55h-1.56v7.237zm15.994-3.618q0-3.768-3.282-3.768-3.28 0-3.28 3.768t3.28 3.768q3.282 0 3.282-3.768m-4.436 1.697q-.343-.5-.343-1.697t.343-1.697q.345-.5 1.154-.5.812 0 1.154.5.345.499.344 1.697 0 1.197-.343 1.697t-1.155.499q-.81 0-1.154-.5Zm.768-6.214v-1.622h-1.872v1.622zm2.645 0v-1.622H89.29v1.622zm8.57 3.394q0-1.173-.81-1.622l1.559-.013v-1.273l-3.618.325h-.2q-3.156 0-3.156 2.458 0 1.347.898 1.959-.45.287-.649.618-.2.33-.2.767 0 .711.537 1.086-1.097.585-1.097 1.56 0 1.047.86 1.553.861.505 2.633.505 1.421 0 2.289-.243.867-.243 1.26-.774.393-.53.393-1.391 0-.711-.287-1.148-.288-.437-.967-.674-.68-.237-1.865-.324l-1.56-.125q-.672-.05-.673-.524 0-.3.25-.5a5.6 5.6 0 0 0 1.322.138q3.081 0 3.081-2.358m-4.11.711q-.306-.25-.306-.811t.312-.824q.312-.262.998-.262t1.004.262q.318.263.318.824 0 .562-.318.811-.318.25-1.017.25-.686 0-.992-.25Zm-.618 3.955q.324.063.748.1l1.56.125q.786.063 1.06.212.275.15.275.537 0 .349-.187.543-.187.193-.649.274t-1.298.081q-1.022 0-1.465-.237t-.443-.774a1.1 1.1 0 0 1 .399-.86Zm11.035.131a9 9 0 0 0 1.241-.255v-1.548q-.486.188-1.067.294a6.3 6.3 0 0 1-1.129.106q-.96 0-1.428-.393t-.555-1.317h4.491v-.536q0-3.795-3.107-3.794-1.559 0-2.37.968-.811.966-.811 2.826 0 1.92.848 2.832.849.91 2.633.911.586 0 1.254-.093Zm-.643-5.59q.312.356.399 1.192h-2.694q.087-.849.405-1.198.318-.35.967-.35.61.001.923.356m5.439 5.534v-5.353q.761-.36 1.473-.361.56 0 .817.262.255.261.255.835v4.617h1.747v-4.953q0-1.149-.605-1.778-.606-.63-1.678-.63a3.4 3.4 0 0 0-1.042.168 5.2 5.2 0 0 0-1.104.53l-.05-.574h-1.559v7.237zm10.573-.399q.718-.549.718-1.71 0-.985-.481-1.522-.48-.536-1.565-.736l-.936-.175q-.723-.125-.723-.698 0-.35.287-.5t.935-.15a5.9 5.9 0 0 1 2.134.4v-1.547a7.2 7.2 0 0 0-2.196-.35q-1.498 0-2.227.55-.73.549-.73 1.697 0 .935.487 1.453.486.518 1.572.73l.935.175q.724.124.724.699 0 .387-.287.561-.288.175-.948.175-.599 0-1.242-.106-.642-.106-1.116-.269v1.535a9.5 9.5 0 0 0 2.445.337q1.497 0 2.214-.549m3.687.4.05-.575q.598.388 1.06.543t.973.156q1.348 0 2.059-.96.711-.962.711-2.783 0-1.822-.711-2.783-.71-.96-2.059-.96-.486 0-.923.137-.436.137-.973.474v-3.12l-1.746.15v9.72h1.559Zm2.738-5.254q.331.487.331 1.635c0 1.148-.11 1.31-.331 1.634q-.33.487-1.129.487a2.7 2.7 0 0 1-.673-.087 3.7 3.7 0 0 1-.749-.3v-3.469a3.7 3.7 0 0 1 .749-.3q.337-.086.673-.086.799 0 1.129.486m8.035 5.31a9 9 0 0 0 1.241-.256v-1.548q-.486.188-1.067.294-.58.105-1.129.106-.96 0-1.428-.393t-.555-1.317h4.491v-.536q0-3.794-3.107-3.794-1.559 0-2.37.968-.811.966-.811 2.826 0 1.92.848 2.832.849.91 2.633.911.586 0 1.254-.093m-.643-5.59q.312.355.399 1.191h-2.694q.087-.849.405-1.198.318-.35.967-.35.61.001.923.356Zm5.564 5.533v-5.09q.462-.262.929-.375a4.5 4.5 0 0 1 1.055-.112q.312 0 .636.037v-1.697a2.5 2.5 0 0 0-.462-.037q-.598 0-1.11.193-.512.194-1.16.68l-.075-.836h-1.559v7.237zm6.388-.043a5.3 5.3 0 0 0 1.147-.556l.05.6h1.56v-4.742q0-1.41-.705-2.028-.706-.617-2.302-.617-.537 0-1.191.093a10 10 0 0 0-1.204.243v1.535a5.4 5.4 0 0 1 1.06-.262 8 8 0 0 1 1.148-.087q.76 0 1.11.268.35.27.349.855v.624a8 8 0 0 0-.804-.119 8 8 0 0 0-.68-.031q-1.422 0-2.096.543t-.674 1.703q0 1.06.549 1.603.55.543 1.61.543a3.5 3.5 0 0 0 1.073-.168m-1.204-2.727q.255-.2.829-.2.274 0 .643.044.368.045.754.119v1.06q-.536.238-.923.337c-.387.099-.495.1-.711.1q-.849 0-.848-.823 0-.438.256-.637m10.448 2.62v-1.497a6 6 0 0 1-.699.181 3.3 3.3 0 0 1-.611.056q-.524 0-.724-.23-.2-.231-.199-.818v-3.244h2.233v-1.535h-2.233V21.97l-1.747.163v1.584h-1.422v1.535h1.422v3.444q0 1.26.524 1.821.525.562 1.709.562.874 0 1.747-.274Zm5.689-.424.05.574h1.559v-7.237h-1.747v5.366q-.71.35-1.384.35-.537 0-.786-.263-.25-.262-.25-.836v-4.617h-1.746v4.954q0 1.135.592 1.772.593.636 1.628.636.998 0 2.084-.699m5.039.574v-5.353q.762-.36 1.473-.361.561 0 .817.262.255.261.255.835v4.617h1.747v-4.953q0-1.149-.605-1.778-.605-.63-1.678-.63-.523 0-1.042.168a5.2 5.2 0 0 0-1.103.53l-.051-.574h-1.559v7.237zm12.102-4.741q0-1.173-.81-1.622l1.559-.013v-1.273l-3.618.325h-.199q-3.157 0-3.157 2.458 0 1.347.899 1.959-.452.286-.65.618-.2.33-.2.767 0 .711.538 1.086-1.098.585-1.098 1.56-.001 1.047.861 1.553.86.505 2.631.505 1.423 0 2.29-.243.865-.243 1.26-.774.393-.53.393-1.391 0-.711-.288-1.148-.287-.437-.966-.674-.68-.237-1.865-.324l-1.56-.125q-.673-.05-.674-.524 0-.3.25-.5a5.6 5.6 0 0 0 1.322.138q3.082 0 3.082-2.358m-4.111.711q-.305-.25-.306-.811 0-.561.312-.824.314-.261.999-.262.687 0 1.003.262.32.263.32.824t-.32.811q-.318.25-1.016.25-.686 0-.992-.25m-.618 3.955q.326.063.749.1l1.56.125q.786.063 1.06.212.275.15.275.537-.001.349-.187.543-.188.193-.65.274-.461.081-1.296.081-1.024 0-1.466-.237-.443-.237-.443-.774 0-.511.398-.86ZM57.016 15.998q1.51 0 2.446-.456.935-.455 1.366-1.447.43-.991.43-2.59 0-1.596-.43-2.588-.431-.992-1.366-1.448-.937-.455-2.446-.455h-3.38v8.984zM55.432 8.51h1.584q.936 0 1.46.28.525.282.742.937.219.654.219 1.778 0 1.122-.219 1.778-.218.654-.742.936-.524.28-1.46.28h-1.584zm11.833 7.543a9 9 0 0 0 1.242-.256V14.25q-.487.188-1.067.293t-1.13.106q-.96 0-1.428-.393t-.555-1.316h4.491v-.537q0-3.793-3.106-3.793-1.56 0-2.37.967-.811.967-.811 2.826 0 1.922.848 2.832.849.912 2.632.912.587 0 1.254-.094m-.642-5.59q.31.355.399 1.191h-2.695q.087-.847.406-1.197.318-.35.966-.35.612 0 .924.356m7.847 4.96.05.574h1.56V8.76h-1.748v5.365q-.71.35-1.384.35-.537 0-.786-.263-.25-.261-.25-.836V8.761h-1.747v4.953q0 1.136.593 1.772t1.628.636q.999 0 2.084-.698Zm8.183.424V14.35a6 6 0 0 1-.698.18 3.3 3.3 0 0 1-.611.057q-.525 0-.724-.231-.2-.23-.2-.817v-3.245h2.233V8.761H80.42V7.014l-1.746.162v1.585h-1.422v1.534h1.422v3.444q0 1.26.524 1.822.524.561 1.709.561.873 0 1.746-.274Zm6.057-.25q.718-.548.718-1.709 0-.985-.48-1.522t-1.566-.737l-.936-.174q-.724-.125-.724-.699 0-.35.288-.5.285-.149.935-.149.561 0 1.117.106.555.107 1.016.293V8.96a7.2 7.2 0 0 0-2.195-.35q-1.497 0-2.227.55t-.73 1.697q0 .936.486 1.454.487.517 1.572.73l.936.174q.724.125.724.699 0 .387-.287.562-.288.174-.948.174-.6 0-1.242-.106a7 7 0 0 1-1.116-.268v1.534q.586.163 1.222.25a9 9 0 0 0 1.223.088q1.497 0 2.214-.55Zm5.808.518a6 6 0 0 0 .605-.106q.33-.075.804-.212V14.2q-.686.213-1.054.293a3.3 3.3 0 0 1-.717.081q-.948 0-1.391-.53t-.443-1.666q0-1.148.406-1.672.405-.524 1.29-.524.961 0 1.897.337V8.923a6 6 0 0 0-.998-.244 7 7 0 0 0-1.01-.068q-3.37 0-3.37 3.768 0 1.935.824 2.851.824.918 2.558.918.324 0 .599-.032Zm4.578-.118v-5.353q.76-.362 1.472-.362.562 0 .818.262t.255.836v4.617h1.747v-4.954q0-1.148-.605-1.778-.606-.63-1.678-.63-.961 0-2.009.624V6.128l-1.746.15v9.72h1.746Zm10.399.056a9 9 0 0 0 1.241-.256V14.25q-.486.188-1.067.293a6.3 6.3 0 0 1-1.129.106q-.96 0-1.428-.393t-.555-1.316h4.491v-.537q0-3.793-3.107-3.793-1.558 0-2.37.967-.811.967-.811 2.826 0 1.922.848 2.832.849.912 2.633.912.587 0 1.254-.094m-.643-5.59q.312.355.399 1.191h-2.694q.087-.847.405-1.197t.967-.35q.61 0 .923.356"></path></svg>