<?xml version="1.0" encoding="UTF-8"?>
<svg id="Layer_1" data-name="Layer 1" xmlns="http://www.w3.org/2000/svg" version="1.1" viewBox="0 0 924 296">
  <defs>
    <style>
      .cls-1 {
        fill-rule: evenodd;
      }

      .cls-1, .cls-2 {
        fill: #a0a0a0;
        stroke-width: 0px;
      }
    </style>
  </defs>
  <path class="cls-1" d="M294.8,119.4v-14.7h-71v14.7h27.6v69.8h15.8v-69.8h27.6,0Z"/>
  <path class="cls-1" d="M362.4,158v31.1h-15.8v-30.9c0-2.9-.7-5.8-2-8.5-1.3-2.4-3.1-4.6-5.5-6.1-2.2-1.5-4.9-2.3-7.6-2.3s-5.8.8-7.9,2.3c-2.2,1.6-3.8,3.7-4.7,6.1-1.1,2.7-1.6,5.6-1.6,8.5v30.9h-15.9v-90.5h15.8v35.9c1.6-2.9,3.7-4.9,6.5-5.9,3-1,6.2-1.5,9.4-1.5,5.9,0,11.1,1.4,15.5,4.2,4.4,2.8,7.9,6.7,10.2,11.2,2.4,4.8,3.7,10.1,3.7,15.4h-.1Z"/>
  <path class="cls-1" d="M402.8,142c1.3.4,2.6,1,3.8,1.8l2.5-15.8c-1.3-.4-2.6-.6-3.9-.7-1.4,0-2.8,0-4.2,0-3.5,0-7,.8-10.2,2.4-3,1.6-5.7,3.8-7.7,6.3v-7.1h-15.8v60.4h15.9v-30.9c0-2.9.6-5.8,1.8-8.5,1.1-2.4,2.9-4.6,5.2-6.1,2.4-1.6,5.2-2.4,8.1-2.3,1.5,0,3,.2,4.5.7h0Z"/>
  <path class="cls-1" d="M469.9,150.1c-1.3-4.3-3.5-8.3-6.4-11.8-2.9-3.4-6.5-6.2-10.7-8.2-4.3-2-9-3-13.9-3s-8.6.8-12.5,2.5c-3.9,1.6-7.4,4-10.3,6.9-3,3-5.3,6.4-6.9,10.1-1.7,3.9-2.5,8.1-2.5,12.3s1.4,11.1,4.4,16c2.8,4.7,6.8,8.7,11.7,11.5,4.9,2.9,10.5,4.3,16.2,4.3s12.4-1.7,17.5-5.1c5.1-3.3,9.2-7.8,11.7-13.1l-16.1-3.5c-1.4,2.1-3.4,3.9-5.7,5.2-2.3,1.3-4.9,1.9-7.5,1.8-2.5,0-5-.6-7.2-1.7-2.1-1-3.9-2.5-5.2-4.3-1.4-1.8-2.4-3.9-3-6.1h47.2c.8-4.6.4-9.4-.9-13.9h0ZM423.1,152.9c.5-2.4,1.6-4.6,3.1-6.6,1.5-1.9,3.4-3.5,5.6-4.7s4.7-1.7,7.2-1.7,5,.6,7.2,1.8,4.2,2.8,5.7,4.7,2.5,4.2,3,6.5h-31.8Z"/>
  <path class="cls-1" d="M539,150.1c-1.3-4.3-3.4-8.3-6.4-11.8-2.9-3.4-6.5-6.2-10.7-8.2-4.3-2-9-3-13.9-3s-8.6.8-12.5,2.5c-3.9,1.6-7.4,4-10.3,6.9-3,3-5.3,6.4-6.9,10.1-1.7,3.9-2.5,8.1-2.5,12.3s1.4,11.1,4.4,16c2.8,4.7,6.8,8.7,11.7,11.5,4.9,2.9,10.5,4.3,16.2,4.3s12.4-1.7,17.5-5.1c5.1-3.3,9.2-7.8,11.8-13.1l-16.1-3.5c-1.4,2.1-3.4,3.9-5.7,5.2-2.3,1.3-4.9,1.9-7.5,1.8-2.5,0-5-.6-7.2-1.7-2.1-1-3.9-2.5-5.2-4.3-1.4-1.8-2.4-3.9-3-6.1h47.2c.7-4.6.4-9.4-.9-13.9h0ZM492.1,152.9c.5-2.4,1.6-4.6,3.1-6.6,1.5-1.9,3.4-3.5,5.6-4.7s4.7-1.7,7.2-1.7,5,.6,7.2,1.8,4.2,2.8,5.7,4.7,2.5,4.2,3,6.5h-31.8Z"/>
  <path class="cls-1" d="M598.1,98.6v37.7c-2-2.7-4.7-5-7.8-6.6-3.3-1.7-7.1-2.6-10.9-2.5-4.5,0-9,.8-13.2,2.5-4,1.6-7.7,4-10.8,6.9-3.1,2.9-5.6,6.3-7.3,10.1-1.8,3.9-2.7,8.1-2.7,12.3s.9,8.4,2.7,12.3c1.7,3.8,4.2,7.2,7.3,10.1,3.1,2.9,6.8,5.2,10.8,6.9,4.2,1.7,8.6,2.5,13.2,2.5s7.6-.8,10.9-2.5c3.1-1.6,5.7-3.9,7.8-6.6v7.5h15.8v-90.6h-15.8ZM594.6,167.8c-1.4,2.6-3.5,4.8-6.1,6.4-2.7,1.6-5.8,2.4-8.9,2.4s-6.3-.8-9-2.4-5-3.7-6.6-6.3c-1.6-2.7-2.5-5.8-2.4-8.9,0-3.1.8-6.2,2.4-8.9,1.6-2.6,3.8-4.8,6.5-6.4,2.7-1.6,5.8-2.4,9-2.4s6.2.8,8.9,2.4c2.6,1.6,4.7,3.8,6.1,6.4,1.5,2.8,2.2,5.8,2.2,8.9s-.7,6.1-2.2,8.8h.1Z"/>
  <path class="cls-1" d="M629.7,119.3c1,.4,2.1.6,3.1.5,1.1,0,2.1-.2,3.1-.5,1-.4,1.9-.9,2.7-1.6.8-.7,1.4-1.5,1.8-2.5.4-.9.6-1.9.6-2.9s-.2-2-.6-2.9c-.4-.9-1-1.8-1.8-2.5s-1.7-1.3-2.7-1.6c-1-.4-2.1-.6-3.1-.5-1.1,0-2.1.2-3.1.5-1,.4-1.9.9-2.7,1.6s-1.4,1.5-1.8,2.5c-.4.9-.6,1.9-.6,2.9s.2,2,.6,2.9c.4.9,1,1.8,1.8,2.5s1.7,1.3,2.7,1.6h0Z"/>
  <path class="cls-2" d="M640.6,128.8h-15.8v60.4h15.8v-60.4Z"/>
  <path class="cls-1" d="M649,159.9v-31.1h15.8v30.9c0,3,.7,5.9,2.1,8.5,1.3,2.5,3.3,4.6,5.7,6.1,2.5,1.5,5.4,2.3,8.4,2.3s5.7-.7,8.1-2.3c2.3-1.6,4.1-3.7,5.2-6.1,1.2-2.7,1.9-5.6,1.8-8.5v-30.9h15.8v60.4h-15.8v-7.2c-2.1,2.6-4.7,4.8-7.6,6.4-3.1,1.7-6.6,2.5-10.2,2.4-6,0-11.2-1.4-15.5-4.2-4.4-2.8-7.9-6.7-10.1-11.2-2.5-4.9-3.7-10.2-3.7-15.6h0Z"/>
  <path class="cls-1" d="M721.1,128.8v60.4h15.8v-32.1c0-2.4.6-4.8,1.7-7,1.1-2.1,2.7-3.8,4.8-5.1,2-1.3,4.4-2,6.8-1.9,2.5,0,4.9.6,6.9,1.9,2,1.3,3.7,3,4.9,5,1.2,2.2,1.8,4.6,1.8,7v32.4h15.8v-32.4c0-2.4.5-4.8,1.7-7,1.1-2,2.8-3.7,4.8-5,2.1-1.3,4.5-1.9,7-1.9s4.9.6,6.9,1.9c2,1.3,3.6,3,4.7,5,1.2,2.2,1.7,4.6,1.7,7v32.3h15.8v-32.4c0-5-1.3-9.9-3.8-14.3-2.4-4.2-6-7.8-10.4-10.4s-9.6-3.9-14.9-3.9-8.3.8-12,2.6c-3.7,1.7-6.9,4.2-9.4,7.3-2.5-3.1-5.7-5.5-9.4-7.3-3.7-1.7-7.9-2.6-12.1-2.6s-5.1.6-7.3,1.8c-2.3,1.3-4.3,2.9-6,4.8v-6.1s-15.8,0-15.8,0Z"/>
  <g>
    <path class="cls-1" d="M190.8,101.7c-11-11.3-32.6-11.8-45.4-1.2-8.4,6.9-10.6,15.6-11.2,20.7h-23.8c.8-5.8,3.8-11.1,8.4-14.9,4.2-3.4,9.6-5.4,15.2-5.7,1.9-2.9,5.6-5.9,7-7l.3-.3c-.5-.2-.9-.3-1.5-.3-9.8-1.1-19.7,1.7-26.7,7.5-12.9,10.8-11.3,24.5-11.3,25.1l.4,3.4h39.7v-4.2c0-3.4.7-6.7,2.1-9.8,1.4-3.1,3.5-5.9,6.1-8.2,14,6.4,13.8,19.8,13.8,20.4v9.2h8.3v-9c.2-6.1-2.7-17.8-14.1-25.1,9.1-3.1,20.1-1.5,26.2,4.8h0c8.3,8.1,7.4,15.8,7.4,16.1v.5c-.3,4.7-2.3,9.2-5.5,12.8-2.1,2.3-4.8,4.2-7.8,5.5s-6.2,2-9.5,2.1h-23v7.8h23c4.5,0,8.9-1,13-2.8,4.1-1.8,7.7-4.3,10.7-7.5,4.5-5,7.2-11.2,7.5-17.6.2-1.9.7-12.2-9.6-22.2h.3Z"/>
    <path class="cls-1" d="M192.9,154.3c-.4-.4-.9-1-1.3-1.3h0s-1.6,1-3.5,2c-1.8.9-4.3,1.9-4.3,1.9,1,.8,1.9,1.6,2.8,2.6,3.3,3.6,5.2,8.1,5.5,12.8v.6c0,.3,1,8-7.3,16h0c-6.1,6.4-17.1,8-26.2,4.9,11.3-7.4,14.3-19.1,14.1-25.2v-9h-8.3v9.2c0,.6.2,13.9-13.8,20.4-2.6-2.3-4.7-5.1-6.1-8.2-1.4-3.1-2.1-6.4-2.1-9.8v-4.2h-39.9l-.4,3.4c0,.6-1.6,14.2,11.3,25.1,6.9,5.8,16.9,8.6,26.7,7.5.5,0,1-.2,1.5-.3l-.3-.3c-1.4-1.1-5.1-4.1-7-7-5.6-.2-11-2.2-15.2-5.7-4.7-3.8-7.7-9.2-8.4-14.9h23.7c.6,5.1,2.8,13.8,11.2,20.7,12.8,10.7,34.5,10.1,45.4-1.2,10.4-10,9.9-20.3,9.6-22.2-.4-6.5-3-12.7-7.5-17.6l-.2-.2Z"/>
  </g>
</svg>
